<?xml version="1.0" encoding="utf-8"?>
<!-- Generator: Adobe Illustrator 19.2.1, SVG Export Plug-In . SVG Version: 6.00 Build 0)  -->
<svg version="1.1" id="图层_1" xmlns="http://www.w3.org/2000/svg" xmlns:xlink="http://www.w3.org/1999/xlink" x="0px" y="0px"
	 viewBox="0 0 595.3 841.9" style="enable-background:new 0 0 595.3 841.9;" xml:space="preserve">
<style type="text/css">
	.st0{fill-rule:evenodd;clip-rule:evenodd;fill:#FC2727;}
</style>
<g>
	<path class="st0" d="M622.7,234.7c4.7-4.7,7.6-11.1,7.6-18.2V114.1c0-14.1-11.5-25.6-25.6-25.6h-97.9c-8.5-1.8-17.6,0.1-24.2,6.7
		L296.4,282L111.3,96.8c-6.6-6.6-15.7-8.5-24.1-6.7h-97.6c-14.1,0-25.5,11.4-25.5,25.5v101.8c0,7.1,2.9,13.5,7.6,18.1
		c0.1,0.1,0.2,0.3,0.3,0.4l185.4,185.5L42,537.1L9.8,504.7c-10.3-10.3-27-10.3-37.3,0c-10.3,10.3-10.3,27.1,0,37.4l82.5,83l-81.8,83
		c-10.3,10.3-10.3,27.1,0,37.5c10.3,10.3,27,10.3,37.3,0l81.8-82.9l82.4,82.9c10.3,10.3,27,10.3,37.3,0c10.3-10.3,10.3-27.1,0-37.4
		l-30.7-30.9l115.8-115.9l114.9,114.9l-30.7,30.8c-10.3,10.3-10.3,27,0,37.3c10.3,10.3,27,10.3,37.3,0l82.2-82.5l81.4,82.3
		c10.3,10.3,27,10.3,37.3,0c10.3-10.3,10.3-27,0-37.3L538,624.5l82.3-82.6c10.3-10.3,10.3-27,0-37.3c-10.3-10.3-27-10.3-37.3,0
		l-32.1,32.2L436.1,421.9l186.2-186.8C622.5,235,622.6,234.8,622.7,234.7L622.7,234.7z M15.1,204.6v-63.5H81l178.2,178.3l-64.6,64.8
		L15.1,204.6L15.1,204.6z M513.8,574.1L449.2,639L334.3,524.1l64.7-64.9L513.8,574.1L513.8,574.1z M579.1,203.6l-435,436.2
		l-64.8-65.1L513,139.8h66.1V203.6L579.1,203.6z"/>
</g>
</svg>
