<?xml version="1.0" encoding="utf-8"?>
<!-- Generator: Adobe Illustrator 19.2.1, SVG Export Plug-In . SVG Version: 6.00 Build 0)  -->
<svg version="1.1" id="图层_1" xmlns="http://www.w3.org/2000/svg" xmlns:xlink="http://www.w3.org/1999/xlink" x="0px" y="0px"
	 viewBox="0 0 595.3 841.9" style="enable-background:new 0 0 595.3 841.9;" xml:space="preserve">
<style type="text/css">
	.st0{fill-rule:evenodd;clip-rule:evenodd;fill:#FC2727;}
</style>
<g>
	<path class="st0" d="M259.4,627.9c-0.5-1.2-2.7-8-2.7-25c0-25.2-6.2-32.1-14-40.7l-0.1-0.1c-2.3-2.5-4.8-5.2-7.2-8.5
		c-3.7-5-8.8-7.2-17-7.2c-4.9,0-10.1,0.8-15.1,1.6l-0.7,0.1l-2.1,0.3c-2,0.3-4,0.5-6,0.5c-8.8,0-17.6-2.9-23.7-7.7
		c-7-5.6-10.7-13.5-10.7-22.9c0-15.1-0.8-17.9-4.1-21.1c-4.3-4.3-4.8-9.3-1.4-14.6c0.6-1,0.8-2.2,0.4-3.3s-1.1-2-2.2-2.5
		c-4.5-2-6.5-5-6.5-9.5c0-3.2,0.6-5.5,1.3-7.8l0-0.2c0.9-2.9,1.8-6.6,2.7-13.4c0.1-1.1-0.2-2.2-0.8-3c-0.7-0.8-1.7-1.4-2.8-1.5
		c-1.8-0.2-3.8-0.2-5.3-0.2c-0.5,0-1,0-1.3,0c0,0-0.1,0-0.1,0c-9.1-0.1-16.4-0.6-19.1-7.2c-2.7-6.6,2.4-13,8.3-18.9
		c8.2-8.2,15.3-22.4,21.1-42c4.5-15.2,7.2-30.8,8.1-39.5c0,0,0-0.1,0-0.1c9.2-113.6,124-122.5,158.9-122.5l6.5,0.1
		c10.5,0,44.1,5,76,19.9c28.1,13.1,62.8,37.7,69.1,80.9c10.2,70.7,6.9,76.6-19.4,121.7l-0.3,0.4c-0.1,0.1-0.1,0.2-0.2,0.3l-2.2,3.8
		c-3.9,6.8-8.4,14.5-13.3,23.4c-15.5,28.1-22.1,63.4-19.6,105.1c1.9,30.6,8.3,53.8,9,56.3c0,0,2.9,9.6,2.9,9.6l-164.5,0.3
		L259.4,627.9z M218.2,531.5c12.8,0,22.3,4.3,28.9,13.3c1.8,2.4,3.7,4.5,5.6,6.5l0.6,0.7c9.3,10.2,18.1,19.7,18.1,50.9
		c0,3.5,0.2,7.2,0.5,11.2c0.2,2.1,1.9,3.7,4,3.7c0,0,125.5-0.2,125.5-0.2c1.2,0,2.3-0.5,3.1-1.5s1.1-2.2,0.8-3.3
		c-6.1-28.4-16.7-100.7,15.3-158.5c6.4-11.5,11.9-21,16-28c25.2-43.3,26.9-48.1,17.7-112.4c-11.3-77.9-129.4-88.1-130.5-88.2
		c0,0-6.4-0.1-6.4-0.1c-22.3,0-54.9,3-83.9,17.5c-36.6,18.2-56.9,49-60.4,91.7l0,0.2c-1.1,9.5-7.8,58.5-28.8,85.1
		c-0.9,1.2-1.1,2.7-0.5,4.1s1.9,2.3,3.4,2.4c7.3,0.5,12,2.3,15.1,5.8c1.8,2,3.8,5.4,3.3,10.6c-0.9,9.3-2.1,14.5-2.9,17.6
		c-0.5,1.8,0.4,3.8,2.1,4.6c5,2.4,7.5,6.4,7.5,12c0,3.3-0.8,6.4-2.5,9.3c-0.8,1.3-0.7,3,0.2,4.3c4.3,6.1,5,13.4,5,27.5
		c0,5.9,4,15.9,19.2,15.9c1.4,0,2.7-0.1,4.1-0.4l2-0.3l0.8-0.1C206.2,532.5,212.3,531.5,218.2,531.5z"/>
	<path class="st0" d="M217.3,366.5c0,0-8.1-13.8-5.7-22.4c2.4-8.6,0.8-8.9,2.1-15.8c1.3-6.9-3.1-13,3-19.8
		c6.1-6.9,12-10.1,11.9-15.3c-0.2-5.2,0.3-12.9,9.4-16c9.1-3.2,9.1-10.7,19.8-16.7c2.5-1.4,15-5.1,20.4-5.2
		c5.3-0.2,12.2-2.3,14.9-5.4c2.7-3.1,16.5-4.1,20-0.6c3.6,3.5,11.3,7.2,15,3.1c3.7-4.1,11.2-3.4,13.8-0.9c2.6,2.5,2.4,13.6,9.9,9.7
		c7.5-3.9,12.2-0.4,17.7,1.4c5.4,1.8,7,12.2,13,9.2c6-3,9.6,5.1,12.5,8c3,2.9,2.7,10.6,10.5,10.3c7.8-0.3,9.6,6.3,9.7,9.5
		c0.2,3.2,4.1,7.1,7.5,10.4c3.4,3.3,8.3,12.4,8.4,17.2c0.2,4.8-3.8,9.8,0.5,14.1c4.4,4.2,6,12,2.5,16c-3.5,3.9-7.3,8.6-3.2,12.6
		c4,4,0.1,8.4-3.9,13s-3.8,10.2-3.6,15.4c0.2,5.3,3.8,11.4-5.5,11.7c-9.4,0.3-17.9,3-24,9.8c-6.1,6.8-14.4,20.7-19.7,15.5
		c-5.3-5.2-11-0.6-16-8.7c-5.1-8-3.7-18.1-7-18c-3.3,0.2-13.8,5.6-10.7-3c3.2-8.6-1.2-12.9-8.1-12.6c-6.9,0.3-13.4-1.1-17.5,3.4
		c-4,4.6-10.9,5.6-16,0.6c-5.2-5.1-7.6-9.4-15.5-4.7c-7.8,4.7-8.9,9.2-17.6,0.7c-8.7-8.6-16.8-11.1-21-11
		c-4.2,0.2-15.4,1.7-15.7-6.3C228.7,367.6,217.3,366.5,217.3,366.5L217.3,366.5z"/>
</g>
</svg>
