<?xml version="1.0" encoding="utf-8"?>
<!-- Generator: Adobe Illustrator 19.2.1, SVG Export Plug-In . SVG Version: 6.00 Build 0)  -->
<svg version="1.1" id="图层_1" xmlns="http://www.w3.org/2000/svg" xmlns:xlink="http://www.w3.org/1999/xlink" x="0px" y="0px"
	 viewBox="0 0 595.3 841.9" style="enable-background:new 0 0 595.3 841.9;" xml:space="preserve">
<style type="text/css">
	.st0{fill-rule:evenodd;clip-rule:evenodd;fill:#FC2727;}
</style>
<g>
	<path class="st0" d="M625.8,521.5L604,619.8h-0.8c8.9,8.7,14.4,20.7,14.4,34.1c0,26.4-21.4,47.8-47.8,47.8s-47.8-21.4-47.8-47.8
		c0-2.1,0.4-4.2,0.6-6.2l-60.2-60.2c-6.8,3.1-14.4,4.9-22.4,4.9c-30.2,0-54.6-24.5-54.6-54.6c0-30.2,24.5-54.6,54.6-54.6
		c17.6,0,33.1,8.5,43.1,21.4l80-30c1-25.5,21.8-46,47.6-46c26.4,0,47.8,21.4,47.8,47.8C658.6,497.5,644.8,515.2,625.8,521.5
		L625.8,521.5z M569.9,674.4c11.3,0,20.5-9.2,20.5-20.5c0-11.3-9.2-20.5-20.5-20.5c-9.3,0-17.7,6.1-19.3,14.8
		c-1.7,9.1,0.2,12.5,0.2,12.5C553.6,668.6,561,674.4,569.9,674.4L569.9,674.4z M440.2,510.5c-15.1,0-27.3,12.2-27.3,27.3
		c0,15.1,12.2,27.3,27.3,27.3c15.1,0,27.3-12.2,27.3-27.3C467.5,522.7,455.3,510.5,440.2,510.5L440.2,510.5z M569.2,499.7L493.8,528
		c0.6,3.2,1,6.5,1,9.9c0,15.1-6.1,28.7-16,38.6l51.2,51.2c8.5-13,23.2-21.6,39.9-21.6c3.3,0,6.5,0.3,9.6,1l18.8-84.7
		C585.9,518.9,575.4,510.7,569.2,499.7L569.2,499.7z M610.8,455.9c-11.3,0-20.5,9.2-20.5,20.5c0,11.3,9.2,20.5,20.5,20.5
		c11.3,0,20.5-9.2,20.5-20.5C631.3,465.1,622.1,455.9,610.8,455.9L610.8,455.9z M140.5,374c7-99.2,89.5-177.5,190.4-177.5v13.7
		c-93.4,0-170.5,72.2-177.5,163.8H140.5L140.5,374z M547.5,415c1.1-9,1.9-18,1.9-27.3c0-120.7-97.8-218.5-218.5-218.5
		c-106.6,0-195,76.5-214.2,177.5l-5.9,40.4l-11.9,0.6c-75.4,0-136.5,52-136.5,116.1c0,64.1,61.1,116.1,136.5,116.1h368.6v27.3H98.8
		C8.4,647.1-65,582.9-65,503.7c0-75.6,66.9-137.4,151.7-142.8c13.4-123.1,117.6-219,244.2-219c135.7,0,245.8,110,245.8,245.8
		c0,9.2-0.6,18.3-1.6,27.3H547.5L547.5,415z"/>
</g>
</svg>
