<?xml version="1.0" encoding="utf-8"?>
<!-- Generator: Adobe Illustrator 19.2.1, SVG Export Plug-In . SVG Version: 6.00 Build 0)  -->
<svg version="1.1" id="图层_1" xmlns="http://www.w3.org/2000/svg" xmlns:xlink="http://www.w3.org/1999/xlink" x="0px" y="0px"
	 viewBox="0 0 595.3 841.9" style="enable-background:new 0 0 595.3 841.9;" xml:space="preserve">
<style type="text/css">
	.st0{fill-rule:evenodd;clip-rule:evenodd;fill:#FC2727;}
</style>
<path class="st0" d="M567.5,246c-3.3-4.5-8.6-7.2-14.2-7.2h-73.9c-9.7,0-17.5,7.8-17.5,17.5c0,9.7,7.8,17.5,17.5,17.5h48.9
	c-31.2,77.5-85.2,134.8-149.5,161.3c45.7-52.1,75.7-147.5,75.7-258.7c0-9.7-7.8-17.5-17.5-17.5H157.2c-9.7,0-17.5,7.8-17.5,17.5
	c0,111.2,30,206.6,75.8,258.7C151,408.6,97,351.3,65.8,273.8h46.5c9.7,0,17.5-7.8,17.5-17.5c0-9.7-7.8-17.5-17.5-17.5H40.8
	c-5.6,0-10.9,2.7-14.2,7.2c-3.3,4.5-4.2,10.4-2.5,15.7c38.1,116.5,121.7,197.8,220.6,219.1c-0.9,21.7-8.4,59.3-44.7,88.2h-16.6
	c-18.5,0-33.5,15-33.5,33.5v76c0,18.5,15,33.5,33.5,33.5h227.3c18.5,0,33.5-15,33.5-33.5v-76c0-18.5-15-33.5-33.5-33.5h-16.6
	c-36.3-29-43.8-66.6-44.7-88.2c98.9-21.4,182.5-102.7,220.6-219.1C571.7,256.4,570.8,250.5,567.5,246L567.5,246z M409.2,677.1H185
	v-73h224.2V677.1L409.2,677.1z M419.2,193.9c-4.3,136.5-58.5,248.6-122.1,248.6c-63.7,0-117.8-112.1-122.1-248.6H419.2L419.2,193.9z
	 M343.7,567h-93.2c21.3-29,27.6-59.7,29-81.2c5.8,0.4,11.7,0.7,17.6,0.7c5.9,0,11.8-0.3,17.6-0.7C316.1,507.3,322.4,538,343.7,567
	L343.7,567z"/>
</svg>
