<?xml version="1.0" encoding="utf-8"?>
<!-- Generator: Adobe Illustrator 19.2.1, SVG Export Plug-In . SVG Version: 6.00 Build 0)  -->
<svg version="1.1" id="图层_1" xmlns="http://www.w3.org/2000/svg" xmlns:xlink="http://www.w3.org/1999/xlink" x="0px" y="0px"
	 viewBox="0 0 595.3 841.9" style="enable-background:new 0 0 595.3 841.9;" xml:space="preserve">
<style type="text/css">
	.st0{fill-rule:evenodd;clip-rule:evenodd;fill:#FC2727;}
</style>
<g>
	<path class="st0" d="M595,483.5c-1.4,0-2.7,0-2.7,0l-192.5-314c10.9-9.6,19.1-24.6,19.1-41c0-30-24.6-54.6-54.6-54.6
		c-30,0-54.6,24.6-54.6,54.6c0,2.7,0,6.8,1.4,9.6L93.9,218.6C84.4,205,68,196.8,50.2,196.8c-30,0-54.6,24.6-54.6,54.6
		c0,24.6,16.4,45.1,38.2,51.9l-49.2,208.9c-24.6,5.5-43.7,27.3-43.7,53.2c0,30,24.6,54.6,54.6,54.6c16.4,0,31.4-6.8,42.3-19.1
		l203.4,113.3v1.4c0,30,24.6,54.6,54.6,54.6c30,0,54.6-24.6,54.6-54.6c0-2.7,0-5.5,0-8.2L565,581.8c9.6,6.8,20.5,10.9,32.8,10.9
		c30,0,54.6-24.6,54.6-54.6C649.6,508.1,625,483.5,595,483.5L595,483.5z M362.9,101.2c15,0,27.3,12.3,27.3,27.3
		c0,15-12.3,27.3-27.3,27.3c-15,0-27.3-12.3-27.3-27.3C335.6,113.5,347.9,101.2,362.9,101.2L362.9,101.2z M320.6,383.8l-102.4-58.7
		L342.4,179c1.4,0,2.7,1.4,5.5,1.4L320.6,383.8L320.6,383.8z M343.8,423.4L524,525.8l-193.9,9.6L343.8,423.4L343.8,423.4z
		 M317.8,408.4l-16.4,128.3l-87.4,4.1l-64.2-136.5l53.2-62.8L317.8,408.4L317.8,408.4z M319.2,161.3c1.4,2.7,4.1,4.1,5.5,6.8
		L199,314.2l-96.9-56c0-2.7,0-5.5,0-6.8c0-2.7,0-6.8-1.4-9.6L319.2,161.3L319.2,161.3z M93.9,281.4l90.1,50.5L139,383.8l-46.4-101
		L93.9,281.4L93.9,281.4z M21.6,251.4c0-15,12.3-27.3,27.3-27.3s27.3,12.3,27.3,27.3c0,15-12.3,27.3-27.3,27.3
		S21.6,266.4,21.6,251.4L21.6,251.4z M-5.8,592.7c-15,0-27.3-12.3-27.3-27.3c0-15,12.3-27.3,27.3-27.3c15,0,27.3,12.3,27.3,27.3
		C21.6,580.4,9.3,592.7-5.8,592.7L-5.8,592.7z M24.3,519c-4.1-2.7-8.2-4.1-13.7-6.8l49.2-208.9c4.1-1.4,9.6-2.7,13.7-4.1l49.2,105.1
		L24.3,519L24.3,519z M39.3,534l92.8-107.9l54.6,117.4l-139.3,6.8C44.8,544.9,42,538.1,39.3,534L39.3,534z M246.8,689.7L47.5,579.1
		v-1.4l151.6-8.2l51.9,112C249.6,684.2,248.2,686.9,246.8,689.7L246.8,689.7z M225,568.1l72.4-4.1L285.1,661
		c-5.5,1.4-9.6,2.7-13.7,4.1L225,568.1L225,568.1z M294.6,742.9c-15,0-27.3-12.3-27.3-27.3c0-15,12.3-27.3,27.3-27.3
		s27.3,12.3,27.3,27.3C321.9,730.6,309.6,742.9,294.6,742.9L294.6,742.9z M339.7,685.6c-6.8-9.6-16.4-17.7-28.7-21.8l13.7-99.7
		l217.1-10.9c1.4,4.1,2.7,8.2,4.1,12.3L339.7,685.6L339.7,685.6z M547.2,512.2L346.5,397.5l28.7-215.7c1.4,0,2.7,0,2.7-1.4
		l189.8,309.9C559.5,494.4,551.3,502.6,547.2,512.2L547.2,512.2z M595,565.4c-15,0-27.3-12.3-27.3-27.3c0-15,12.3-27.3,27.3-27.3
		c15,0,27.3,12.3,27.3,27.3C622.3,553.1,610,565.4,595,565.4L595,565.4z"/>
</g>
</svg>
