<?xml version="1.0" encoding="utf-8"?>
<!-- Generator: Adobe Illustrator 19.2.1, SVG Export Plug-In . SVG Version: 6.00 Build 0)  -->
<svg version="1.1" id="图层_1" xmlns="http://www.w3.org/2000/svg" xmlns:xlink="http://www.w3.org/1999/xlink" x="0px" y="0px"
	 viewBox="0 0 595.3 841.9" style="enable-background:new 0 0 595.3 841.9;" xml:space="preserve">
<style type="text/css">
	.st0{fill-rule:evenodd;clip-rule:evenodd;fill:#FC2727;}
</style>
<g>
	<path class="st0" d="M520.2,454.5c14.6,5,28.2,10.8,41.2,18c50.1,28,86.9,68.3,109.9,120.9c16,36.5,22.1,74.8,20,114.5
		c-0.7,12.6-7,21.3-17.5,23.7c-15.3,3.6-28.9-8.4-27.8-24.5c2.9-44.2-6.7-85.4-30.4-122.9c-31.6-49.9-76.4-81.2-134.4-93.4
		c-9-1.9-18.1-2.5-27.1-3.9c-10.2-1.6-18.1-10-18.9-19.7c-0.9-11.1,5.1-20.5,15.3-23.8c26.9-8.8,48.6-25,66.1-46.8
		c18.4-22.9,29.1-49.2,31.3-78.5c3.1-41.5-8.7-78.4-36.3-109.8c-21.1-24-47.5-39.2-78.6-46.3c-13-2.9-26.2-3.5-39.4-3.5
		c-10.6,0-19.4-7.1-21.5-17.2c-2.9-13.5,6.9-25.4,21.6-26c28.2-1.1,55.5,3.3,81.4,14.7c58.5,25.8,97,69.6,111.5,131.9
		c15.3,65.7-1.3,124.1-46.7,174.1c-2.9,3.2-6.1,6.2-9.3,9.2C527.3,448.3,524,451.1,520.2,454.5L520.2,454.5z"/>
	<path class="st0" d="M210.1,528.9c10.7,18.2,21.1,35.9,31.5,53.5c14.2,24.2,28.4,48.4,42.8,72.6c1.4,2.4,1.4,3.7-0.7,5.8
		c-23.7,23.2-47.3,46.5-70.9,69.8c-2.1,2-3.2,2.4-5.5,0.1c-23.6-23.5-47.3-46.8-71.1-70.1c-1.7-1.6-2.2-2.8-0.9-5.1
		c24.4-41.3,48.7-82.7,73.1-124.1C208.9,530.8,209.3,530.2,210.1,528.9L210.1,528.9z"/>
	<path class="st0" d="M509.6,709.6c-3.1-18.4-7.4-36.6-13.9-54.1c-30.5-81.8-85.5-141-164.9-177.5c-8-3.7-16.3-6.8-24.9-9.8
		c51.6-33,83.8-78.7,92.4-139.3c8.6-60.6-8.3-114.1-49.6-159.1c-77.4-84.1-209-83.7-285.8,1c-39.3,43.4-56,95-49,153.1
		c7.5,62.7,40.1,110.1,92.9,144c-0.9,1.2-2.4,1.3-3.6,1.7c-7.8,2.7-15.5,5.9-23.1,9.3c-59.4,27.3-105.8,69-139,125.4
		c-19.1,32.4-31.4,67.2-37.7,104.3c-1.9,11.5,2.6,21.6,12.2,25.9c11.5,5.2,23.2,2.4,30.5-6.8c3.9-4.9,4.8-10.6,6-16.3
		c10.7-54.8,35.5-102.2,76.5-140c68.3-63,148.8-84.6,239.2-63.5c73,17.1,127.6,60.5,164.8,125.6c15.1,26.4,24,55,29.6,84.8
		c2.3,12.5,15.1,20.5,28.2,18.2C502.8,734.3,511.6,721.9,509.6,709.6L509.6,709.6z M206.5,450.8c-83.9-0.2-150-67.7-149.7-149.9
		C57,218,124.2,151.1,206.5,151.3c82.5,0.2,149.6,67.4,149.6,149.8C356,383.7,289,451,206.5,450.8L206.5,450.8z"/>
</g>
</svg>
