<?xml version="1.0" encoding="utf-8"?>
<!-- Generator: Adobe Illustrator 19.2.1, SVG Export Plug-In . SVG Version: 6.00 Build 0)  -->
<svg version="1.1" id="图层_1" xmlns="http://www.w3.org/2000/svg" xmlns:xlink="http://www.w3.org/1999/xlink" x="0px" y="0px"
	 viewBox="0 0 595.3 841.9" style="enable-background:new 0 0 595.3 841.9;" xml:space="preserve">
<style type="text/css">
	.st0{fill-rule:evenodd;clip-rule:evenodd;fill:#FC2727;}
</style>
<g>
	<path class="st0" d="M217.9,202.9c-6.5,0-11.8-4.5-13.1-11c-1.2-2.4-1.8-4.7-1.8-6.9v-9.6h-18.9c-8.8,0-16-7.2-16-16s7.2-16,16-16
		H203V128c0-8.8,7.2-16,16-16c8.8,0,16,7.2,16,16v15.4h14.2c8.8,0,16,7.2,16,16s-7.2,16-16,16H235v9.6c0,4.8-2.3,9.3-6.3,12.4
		C226,200.9,222.1,202.9,217.9,202.9z"/>
	<path class="st0" d="M184.1,173.4H205V185c0,2.3,0.7,4.4,1.7,6.3c1,5.5,5.5,9.6,11.2,9.6c3.9,0,7.2-2,9.3-4.9
		c3.4-2.6,5.8-6.4,5.8-11v-11.6h16.2c7.7,0,14-6.3,14-14c0-7.7-6.3-14-14-14H233V128c0-7.7-6.3-14-14-14c-7.7,0-14,6.3-14,14v17.4
		h-20.9c-7.7,0-14,6.3-14,14C170.2,167.1,176.4,173.4,184.1,173.4L184.1,173.4z"/>
	<path class="st0" d="M224.1,792.5c-118.5-1.7-191.8-3.5-217.8-5.3c-29.6-2.1-45.9-16.3-54.4-27.8c-21.1-28.9-14.7-67.9-11-83.3
		c0-0.1,0.1-0.2,0.1-0.3l0.9-2.8c0-0.1,0.1-0.2,0.1-0.3c18.4-44.8,46.9-85.1,82.2-116.7c32.7-29.2,71.6-51.3,112.8-63.9
		c-27.4-20.2-50.6-51.1-67.3-89.5C51.3,360,41.5,310,41.5,257.7c0-67,16.5-130.5,46.6-179l3.5-5.7c0.5-0.8,1.2-1.3,2-1.6l6.3-2.3
		c36.4-13.4,75.1-20.2,115-20.2c39.9,0,78.6,6.8,115.1,20.2l6.3,2.3c0.8,0.3,1.5,0.9,2,1.6l3.5,5.7c30,48.5,46.6,112.1,46.6,179
		c0,49.2-8.7,96.7-25.2,137.6c-15.9,39.3-38.6,71.4-65.7,93c44.3,11.3,86.2,33.1,121.4,63.2c37.7,32.3,67.9,74.2,87.3,121.2
		c0,0.1,0.1,0.2,0.1,0.3l0.9,2.8c0,0.1,0.1,0.2,0.1,0.3c3.7,15.5,10.1,54.5-11,83.3c-8.4,11.6-24.7,25.8-54.3,27.8
		c-26,1.8-98.9,3.6-216.7,5.3c0,0,0,0,0,0H224.1z M-31.1,691.7c-3.4,15.2-4.1,35.2,3.9,46.3c4.2,5.7,11.2,8.8,21.5,9.5
		c27,1.9,103.8,3.7,228.3,5.6c127-1.9,204.8-3.8,231.3-5.6c10.2-0.7,17.2-3.8,21.4-9.5c8.1-11.1,7.3-31.1,3.9-46.3
		C434.9,586,335.8,517.4,226.8,517c-0.3,0-0.6,0-1,0c-0.6,0-1.2,0-1.8,0c-0.1,0-0.2,0-0.3,0l-2.9-0.2
		C112.1,517.4,13.2,586-31.1,691.7z M74,274c4.4,56.6,21.1,109.3,47.1,148.6c26.4,39.9,59.7,61.9,93.8,61.9c34.2,0,67.5-22,93.9-62
		c26-39.4,42.7-92.1,47-148.8c-44.3-9.1-91-13.7-138.8-13.7C151.5,260.1,99.9,268.6,74,274z M111.3,102.3
		c-22.5,39.5-36,89.4-39,144.6c31.9-6.2,82.1-13.2,144-13.2c48.2,0,95.7,4.4,141.4,13c-3.1-55.1-16.6-104.9-39-144.4
		c-32.9-11-67.8-16.6-103.7-16.6C179.1,85.7,144.2,91.3,111.3,102.3z"/>
	<path class="st0" d="M224.1,790.5c-118.5-1.7-191.7-3.5-217.7-5.3c-28.9-2-44.7-15.8-52.9-27c-20.6-28.2-14.3-66.5-10.6-81.7
		c0-0.1,0-0.1,0-0.2l0.9-2.8c0,0,0-0.1,0.1-0.1c18.3-44.5,46.6-84.6,81.7-116c33.5-30,73.5-52.3,116-64.7
		c-28.5-20-52.7-51.3-69.9-91c-18.4-42.2-28.1-92-28.1-144c0-66.6,16.4-129.8,46.3-178l3.5-5.7c0.2-0.4,0.6-0.7,1-0.8l6.3-2.3
		c36.2-13.3,74.6-20,114.3-20c39.7,0,78.2,6.7,114.4,20l6.3,2.3c0.4,0.2,0.8,0.4,1,0.8l3.5,5.7c29.8,48.2,46.3,111.4,46.3,178
		c0,99.7-35.7,187.9-93.4,231.5c45.5,10.9,88.5,32.9,124.5,63.7C455,585,485,626.6,504.2,673.4c0,0,0,0.1,0,0.1l0.9,2.8
		c0,0.1,0,0.1,0,0.2c3.7,15.2,9.9,53.5-10.6,81.7c-8.2,11.2-24,25-52.8,27c-25.9,1.8-98.8,3.6-216.6,5.3c0,0,0,0,0,0H224.1z
		 M-33,691.1c-3.5,15.6-4.3,36.4,4.2,48.1c4.5,6.2,12,9.6,22.9,10.3c27,1.9,103.8,3.7,228.4,5.6c127.1-1.9,204.9-3.8,231.4-5.6
		c10.9-0.8,18.3-4.2,22.9-10.3c8.5-11.6,7.8-32.4,4.2-48.1C436.5,584.5,336.7,515.4,226.8,515c-0.3,0-0.7,0-1.1,0
		c-0.6,0-1.1,0-1.6,0c0,0-0.1,0-0.1,0l-2.9-0.2C111.3,515.4,11.6,584.6-33,691.1z M71.9,272.4c4.2,57.6,21,111.3,47.5,151.3
		c26.8,40.5,60.7,62.8,95.5,62.8c34.8,0,68.8-22.3,95.6-62.9c26.5-40.1,43.3-93.8,47.5-151.5c-45-9.3-92.4-14.1-140.9-14.1
		C150.3,258.1,98.1,266.9,71.9,272.4z M110,100.7c-23.2,40.5-37,91.8-39.8,148.7c32.3-6.4,83.2-13.7,146.1-13.7
		c49,0,97.2,4.5,143.5,13.5c-2.9-56.7-16.6-108-39.8-148.5c-33.4-11.3-68.7-17-105-17S143.3,89.4,110,100.7z"/>
	<path class="st0" d="M224.1,790.5c-118.5-1.7-191.7-3.5-217.7-5.3c-28.9-2-44.7-15.8-52.9-27c-20.6-28.2-14.3-66.5-10.6-81.7
		c0-0.1,0-0.1,0-0.2l0.9-2.8c0,0,0-0.1,0.1-0.1c18.3-44.5,46.6-84.6,81.7-116c33.5-30,73.5-52.3,116-64.7
		c-28.5-20-52.7-51.3-69.9-91c-18.4-42.2-28.1-92-28.1-144c0-66.6,16.4-129.8,46.3-178l3.5-5.7c0.2-0.4,0.6-0.7,1-0.8l6.3-2.3
		c36.2-13.3,74.6-20,114.3-20c39.7,0,78.2,6.7,114.4,20l6.3,2.3c0.4,0.2,0.8,0.4,1,0.8l3.5,5.7c29.8,48.2,46.3,111.4,46.3,178
		c0,99.7-35.7,187.9-93.4,231.5c45.5,10.9,88.5,32.9,124.5,63.7C455,585,485,626.6,504.2,673.4c0,0,0,0.1,0,0.1l0.9,2.8
		c0,0.1,0,0.1,0,0.2c3.7,15.2,9.9,53.5-10.6,81.7c-8.2,11.2-24,25-52.8,27c-25.9,1.8-98.8,3.6-216.6,5.3c0,0,0,0,0,0H224.1z
		 M-33,691.1c-3.5,15.6-4.3,36.4,4.2,48.1c4.5,6.2,12,9.6,22.9,10.3c27,1.9,103.8,3.7,228.4,5.6c127.1-1.9,204.9-3.8,231.4-5.6
		c10.9-0.8,18.3-4.2,22.9-10.3c8.5-11.6,7.8-32.4,4.2-48.1C436.5,584.5,336.7,515.4,226.8,515c-0.3,0-0.7,0-1.1,0
		c-0.6,0-1.1,0-1.6,0c0,0-0.1,0-0.1,0l-2.9-0.2C111.3,515.4,11.6,584.6-33,691.1z M71.9,272.4c4.2,57.6,21,111.3,47.5,151.3
		c26.8,40.5,60.7,62.8,95.5,62.8c34.8,0,68.8-22.3,95.6-62.9c26.5-40.1,43.3-93.8,47.5-151.5c-45-9.3-92.4-14.1-140.9-14.1
		C150.3,258.1,98.1,266.9,71.9,272.4z M110,100.7c-23.2,40.5-37,91.8-39.8,148.7c32.3-6.4,83.2-13.7,146.1-13.7
		c49,0,97.2,4.5,143.5,13.5c-2.9-56.7-16.6-108-39.8-148.5c-33.4-11.3-68.7-17-105-17S143.3,89.4,110,100.7z"/>
	<path class="st0" d="M503.3,676.9l-0.9-2.8c-39.2-95.1-119.3-162.7-214.1-184c57.3-40.8,96.1-128.4,96.1-232.5
		c0-66.2-16.3-129-46-176.9l-3.5-5.7l-6.3-2.3c-72.3-26.5-155.1-26.5-227.3,0L95,75.1l-3.5,5.7c-29.7,47.9-46,110.7-46,176.9
		c0,106.9,40.9,196.4,100.7,235.8c-88.3,24.3-163,89.9-200.4,180.7l-0.9,2.8c-3.6,14.9-9.8,52.5,10.3,80
		c7.9,10.9,23.3,24.2,51.4,26.2c25.9,1.8,98.7,3.6,217.5,5.3h0.9h0.2c117.8-1.8,190.6-3.5,216.5-5.3c28-2,43.4-15.3,51.3-26.2
		C513.1,729.4,506.9,691.8,503.3,676.9L503.3,676.9z M108.6,99c67.8-23.1,144.8-23.1,212.7,0c24.3,42.1,38,95.5,40.5,152.6
		c-130.9-25.8-244.5-9.7-293.8,0.2C70.5,194.7,84.3,141.1,108.6,99L108.6,99z M69.8,270.8c39.6-8.5,157.4-28.3,290.3-0.3
		c-8.2,120.6-71.3,217.9-145.2,217.9C141.1,488.5,78,391.2,69.8,270.8L69.8,270.8z M478.5,740.3c-4.9,6.7-12.9,10.3-24.4,11.2
		c-27,1.9-106.2,3.7-231.6,5.6l0.3,20.7l-0.3-20.7C97.2,755.2,21,753.3-6,751.5c-11.5-0.8-19.5-4.5-24.4-11.2
		c-9-12.3-8.3-33.5-4.5-49.9C10,583,110.4,513.4,221.1,512.9l3,0.2c0.9,0,1.9-0.1,2.8-0.1c110.9,0.4,211.3,70,256.2,177.5
		C486.7,706.8,487.4,728.1,478.5,740.3L478.5,740.3z"/>
	<path class="st0" d="M575.9,756.8c-1,0-2-0.4-2.8-1.1c-0.8-0.7-1.2-1.7-1.2-2.8l-0.7-25.8c0-1.1,0.4-2.1,1.1-2.9
		c0.8-0.8,1.8-1.2,2.9-1.2c0.2,0,22.7-0.6,39.9-1.8c3.5-0.2,4.3-1.2,4.6-1.7c1.1-1.4,6.4-10.1,1.4-42.5
		c-26.8-83.1-85.8-114.8-128.9-138c-8.1-4.3-14.8-8-20.8-11.5c-6.9-4-14.1-7.5-20.5-10.5l-0.8-0.4c-16.7-7.9-39.7-18.7-31.3-40
		c0.1-0.2,0.1-0.3,0.2-0.4l1.4-2.6c0.1-0.1,0.2-0.3,0.2-0.4c38.5-55.4,64.9-115.4,78.5-178.4c-18.3-7.9-53-12.2-72.3-13.2
		c-1.1-0.1-2-0.5-2.8-1.3c-0.7-0.8-1.1-1.8-1-2.9l1.3-25.8c0.1-2.1,1.9-3.8,4-3.8l0.2,0c1.9,0.1,45.3,2.4,76.6,13.4
		c5.4-39,3.5-63.9,3.3-66.7c-3.8-72.4-87.5-81.5-91-81.8l-12.9-1.3c-1.1-0.1-2-0.6-2.7-1.4c-0.7-0.8-1-1.9-0.9-2.9l2.5-25.7
		c0.1-1.1,0.6-2,1.4-2.7c0.7-0.6,1.6-0.9,2.5-0.9c0.1,0,0.3,0,0.4,0l12.8,1.3c40.2,4,117.2,32.7,121.4,112.8
		c0.2,2.2,3.7,37.9-5.8,91.7c-12,68.1-39.9,136.7-80.7,198.3c2.8,1.4,5.8,2.8,8.4,4.1l0.4,0.2c7,3.3,15.7,7.4,24.1,12.3
		c5.6,3.4,12,6.8,18.7,10.4l0.9,0.5c45.5,24.5,114.3,61.4,145.6,159.6c0.1,0.2,0.1,0.4,0.1,0.6c5.7,35.3,3.3,57.2-7.8,71.1
		c-6.9,8.7-16.6,13.5-28.8,14.4c-17.5,1.2-41.2,1.8-41.4,1.8C576,756.8,575.9,756.8,575.9,756.8z"/>
	<path class="st0" d="M575.9,754.8c-0.5,0-1-0.2-1.4-0.5c-0.4-0.4-0.6-0.9-0.6-1.4l-0.7-25.8c0-0.5,0.2-1.1,0.6-1.4
		c0.4-0.4,0.9-0.6,1.4-0.6c0.2,0,22.8-0.6,40-1.8c4.4-0.3,5.5-1.7,6.1-2.4c1.7-2.1,6.9-11.7,1.8-44.2c-27-84-86.5-115.9-129.9-139.3
		c-8.1-4.3-14.7-7.9-20.7-11.5c-7-4.1-14.2-7.5-20.7-10.6l-0.8-0.4c-16.9-8-38-17.9-30.3-37.5c0-0.1,0.1-0.1,0.1-0.2l1.4-2.6
		c0-0.1,0.1-0.1,0.1-0.2c38.9-56.1,65.6-116.9,79.2-180.7c-18.1-8.4-54.2-13-74.5-14c-1.1-0.1-2-1-1.9-2.1l1.3-25.8
		c0.1-1.1,0.9-1.9,2-1.9c0,0,0.1,0,0.1,0c2,0.1,47.2,2.5,78.3,14.1c5.8-40.6,3.9-66.7,3.6-69.6c-3.9-74-89.2-83.3-92.8-83.7
		l-12.9-1.3c-0.5-0.1-1-0.3-1.3-0.7c-0.3-0.4-0.5-0.9-0.4-1.5l2.5-25.7c0.1-0.5,0.3-1,0.7-1.3c0.4-0.3,0.8-0.5,1.3-0.5
		c0.1,0,0.1,0,0.2,0l12.8,1.3c39.6,3.9,115.5,32.2,119.6,111c0.2,2.2,3.8,37.4-5.7,91.2c-12.1,68.6-40.3,137.5-81.7,199.4
		c3.2,1.7,7.2,3.6,10.5,5.1l0.4,0.2c7,3.3,15.6,7.4,24,12.2c5.6,3.4,12,6.8,18.8,10.4l0.9,0.5c45.2,24.3,113.5,61,144.6,158.5
		c0,0.1,0.1,0.2,0.1,0.3c5.6,34.6,3.3,56.1-7.4,69.5c-6.6,8.2-15.8,12.8-27.4,13.6C599.7,754.1,576.2,754.8,575.9,754.8
		C575.9,754.8,575.9,754.8,575.9,754.8z"/>
	<path class="st0" d="M575.9,754.8c-0.5,0-1-0.2-1.4-0.5c-0.4-0.4-0.6-0.9-0.6-1.4l-0.7-25.8c0-0.5,0.2-1.1,0.6-1.4
		c0.4-0.4,0.9-0.6,1.4-0.6c0.2,0,22.8-0.6,40-1.8c4.4-0.3,5.5-1.7,6.1-2.4c1.7-2.1,6.9-11.7,1.8-44.2c-27-84-86.5-115.9-129.9-139.3
		c-8.1-4.3-14.7-7.9-20.7-11.5c-7-4.1-14.2-7.5-20.7-10.6l-0.8-0.4c-16.9-8-38-17.9-30.3-37.5c0-0.1,0.1-0.1,0.1-0.2l1.4-2.6
		c0-0.1,0.1-0.1,0.1-0.2c38.9-56.1,65.6-116.9,79.2-180.7c-18.1-8.4-54.2-13-74.5-14c-1.1-0.1-2-1-1.9-2.1l1.3-25.8
		c0.1-1.1,0.9-1.9,2-1.9c0,0,0.1,0,0.1,0c2,0.1,47.2,2.5,78.3,14.1c5.8-40.6,3.9-66.7,3.6-69.6c-3.9-74-89.2-83.3-92.8-83.7
		l-12.9-1.3c-0.5-0.1-1-0.3-1.3-0.7c-0.3-0.4-0.5-0.9-0.4-1.5l2.5-25.7c0.1-0.5,0.3-1,0.7-1.3c0.4-0.3,0.8-0.5,1.3-0.5
		c0.1,0,0.1,0,0.2,0l12.8,1.3c39.6,3.9,115.5,32.2,119.6,111c0.2,2.2,3.8,37.4-5.7,91.2c-12.1,68.6-40.3,137.5-81.7,199.4
		c3.2,1.7,7.2,3.6,10.5,5.1l0.4,0.2c7,3.3,15.6,7.4,24,12.2c5.6,3.4,12,6.8,18.8,10.4l0.9,0.5c45.2,24.3,113.5,61,144.6,158.5
		c0,0.1,0.1,0.2,0.1,0.3c5.6,34.6,3.3,56.1-7.4,69.5c-6.6,8.2-15.8,12.8-27.4,13.6C599.7,754.1,576.2,754.8,575.9,754.8
		C575.9,754.8,575.9,754.8,575.9,754.8z"/>
	<path class="st0" d="M650,670.2c-30.9-96.7-98.8-133.2-143.7-157.3c-7.2-3.9-13.8-7.4-19.7-10.9c-8.1-4.8-16.5-8.7-23.8-12.2
		c-4.1-2-9.3-4.4-12.9-6.4c101.9-151.4,88.9-286.2,88.3-291.2c-4-77.5-78.8-105.3-117.8-109.1l-12.8-1.3l-2.5,25.7l12.9,1.3
		c3.7,0.4,90.7,9.9,94.6,85.4c0.1,0.6,2.6,28.6-4,72.5c-29.6-11.8-74-14.6-80.1-14.9l-1.3,25.8c22,1.1,59.2,6.1,76.7,14.9
		c-10.6,50.5-32.9,115.4-79.8,183l-1.4,2.6c-7,17.9,12.3,26.9,29.3,35c6.7,3.2,14.3,6.7,21.7,11c6.1,3.6,13.1,7.4,20.6,11.4
		c43.8,23.5,103.6,55.7,130.9,140.6c5.1,32.6,0.2,42.9-2.1,45.9c-1.1,1.4-2.9,2.9-7.5,3.2c-17.2,1.1-40.1,1.8-40.2,1.8l0.7,25.8
		c0,0,23.5-0.6,41.2-1.8c11-0.8,19.8-5.1,26-12.9C653.2,725.4,655.6,704.4,650,670.2L650,670.2z"/>
</g>
</svg>
